{"glyphs":{"0":{"ha":839,"x_min":0,"x_max":0,"o":"m 700 439 b 839 708 775 483 839 569 b 517 1029 839 885 696 1029 b 3 390 233 1029 25 801 b 436 -247 -19 7 132 -247 b 831 186 686 -247 826 -12 b 700 439 833 307 775 392 z m 551 756 b 375 586 460 756 375 682 b 432 449 375 522 400 478 b 369 356 401 428 379 397 b 415 222 346 250 415 222 b 551 115 419 267 551 264 b 419 -103 551 -11 482 -99 b 268 346 311 -111 254 115 b 514 797 285 632 397 778 b 728 688 618 815 703 764 b 731 590 744 639 731 590 b 551 756 731 667 654 756 z "},"1":{"ha":528,"x_min":0,"x_max":0,"o":"m 444 -58 b 403 467 417 29 389 279 b 504 926 438 926 504 926 b 250 963 506 1036 315 1074 b 249 958 250 961 249 960 l 247 958 b 1 739 235 935 163 782 b 42 656 1 739 -11 696 b 179 633 74 632 125 619 b 154 15 158 443 147 208 b 388 -247 163 -167 242 -246 b 528 -175 461 -247 513 -211 b 444 -58 528 -175 476 -161 z "},"2":{"ha":811,"x_min":0,"x_max":0,"o":"m 692 60 b 501 -35 665 75 654 -1 b 282 -62 438 -50 365 -56 b 169 -93 188 -71 169 -93 b 811 678 179 51 811 311 b 413 1029 811 893 628 1029 b 61 724 222 1029 61 886 b 317 496 61 544 194 496 b 474 654 379 496 474 536 b 324 799 474 735 401 799 b 172 657 236 799 172 722 b 161 729 172 657 150 675 b 325 849 175 788 233 850 b 521 660 433 849 524 783 b 0 -112 515 389 -4 226 b 74 -247 0 -165 19 -246 b 633 -247 133 -247 510 -247 b 692 60 789 -246 783 10 z "},"3":{"ha":799,"x_min":0,"x_max":0,"o":"m 433 379 b 799 710 597 397 790 493 b 400 1029 807 935 615 1029 b 49 724 210 1029 49 886 b 304 496 49 544 207 496 b 461 654 367 496 461 536 b 311 799 461 735 390 799 b 160 657 224 799 160 722 b 150 729 160 657 138 675 b 313 849 163 788 222 850 b 508 660 421 849 511 783 b 213 432 504 457 276 447 b 235 278 161 419 179 271 b 469 174 308 289 425 264 b 372 -61 524 64 460 -57 b 353 193 215 -68 232 182 b 157 228 353 193 286 261 b 0 -3 60 203 -6 117 b 347 -247 7 -119 101 -247 b 740 194 708 -247 793 57 b 433 379 667 392 433 379 z "},"4":{"ha":874,"x_min":0,"x_max":0,"o":"m 790 -58 b 749 467 763 29 735 279 b 850 926 783 926 850 926 b 597 963 853 1036 663 1074 b 503 344 554 888 517 619 b 238 332 390 358 238 332 b 481 729 238 332 429 569 b 210 1019 547 938 193 1071 b 161 650 226 969 254 875 b 0 285 78 446 0 318 b 233 44 1 206 179 14 b 499 143 271 67 379 118 b 501 15 499 100 500 57 b 735 -247 508 -167 589 -246 b 874 -175 808 -247 860 -211 b 790 -58 874 -175 822 -161 z "},"5":{"ha":758,"x_min":0,"x_max":0,"o":"m 464 615 b 260 521 349 622 272 563 b 301 828 260 521 268 692 b 521 811 301 828 443 826 b 668 717 692 776 615 690 b 635 1028 721 743 829 1000 b 331 988 513 1046 353 942 b 103 968 308 1032 157 1057 b 7 400 46 876 17 529 b 247 332 0 285 242 297 b 479 244 278 497 467 468 b 263 -57 490 71 406 -58 b 100 53 163 -56 113 -6 b 111 125 89 107 111 125 b 263 -17 110 60 154 -18 b 413 128 350 -15 413 47 b 256 286 413 246 317 282 b 0 25 149 292 0 225 b 318 -247 0 -111 114 -247 b 758 235 614 -247 751 0 b 464 615 764 413 674 603 z "},"6":{"ha":769,"x_min":0,"x_max":0,"o":"m 474 568 b 296 500 343 569 296 500 b 474 899 293 635 354 901 b 451 646 581 896 575 686 b 622 586 451 646 510 572 b 757 742 679 594 746 643 b 461 1029 775 885 683 1029 b 0 318 208 1029 0 732 b 401 -247 0 -44 154 -247 b 769 233 661 -247 769 -12 b 474 568 769 492 586 567 z m 408 -89 b 292 186 329 -89 282 47 b 415 414 300 294 342 417 b 525 181 488 411 525 288 b 408 -89 525 -29 460 -89 z "},"7":{"ha":664,"x_min":0,"x_max":0,"o":"m 586 1006 b 194 1026 568 1022 350 1036 b 3 801 40 1017 -12 892 b 136 681 24 675 136 681 b 201 789 136 681 128 733 b 443 858 289 854 443 858 b 11 15 382 754 21 326 b 244 -247 6 -168 99 -247 b 385 -175 318 -249 369 -211 b 325 -39 385 -175 328 -146 b 654 842 315 250 567 700 b 586 1006 693 908 604 988 z "},"8":{"ha":826,"x_min":0,"x_max":0,"o":"m 621 479 b 781 729 701 526 778 604 b 414 1029 785 892 644 1029 b 0 665 201 1029 0 900 b 178 367 0 513 75 411 b 0 85 89 315 0 226 b 393 -247 0 -119 146 -247 b 826 167 740 -247 826 8 b 621 479 826 343 733 435 z m 401 904 b 546 744 482 907 542 831 b 397 528 549 661 525 557 b 258 699 288 561 258 646 b 401 904 260 813 317 901 z m 419 -114 b 274 92 332 -117 275 -26 b 403 329 272 201 318 294 b 557 133 494 304 550 240 b 419 -114 565 10 508 -111 z "},"9":{"ha":769,"x_min":0,"x_max":0,"o":"m 368 1029 b 0 547 108 1029 0 794 b 296 214 0 290 183 215 b 474 282 426 213 474 282 b 296 -117 476 147 415 -119 b 318 135 188 -114 194 96 b 147 194 318 135 258 210 b 11 40 90 188 24 139 b 308 -247 -6 -103 86 -247 b 769 464 561 -247 769 50 b 368 1029 769 826 615 1029 z m 478 596 b 354 367 469 488 428 364 b 244 601 282 369 244 494 b 361 869 244 811 308 869 b 478 596 440 869 488 735 z "}," ":{"ha":354,"x_min":0,"x_max":0,"o":""},"!":{"ha":468,"x_min":0,"x_max":0,"o":"m 211 -62 b 119 -156 160 -62 119 -104 b 211 -247 119 -206 160 -247 b 304 -156 263 -247 304 -206 b 211 -62 304 -104 263 -62 z m 217 1208 b 69 1117 154 1206 69 1176 b 133 54 69 1057 128 97 b 292 50 142 -12 283 -22 b 397 1113 319 281 388 1035 b 217 1208 407 1190 279 1210 z "},"\"":{"ha":535,"x_min":0,"x_max":0,"o":"m 406 1319 b 261 1122 317 1319 261 1208 b 353 1029 261 1071 301 1029 b 429 1129 419 1029 458 1086 b 454 1267 403 1167 418 1243 b 406 1319 482 1286 451 1319 z m 263 1267 b 214 1319 292 1286 261 1319 b 69 1122 125 1319 69 1208 b 163 1029 69 1071 111 1029 b 238 1129 228 1029 267 1086 b 263 1267 211 1167 228 1243 z "},"#":{"ha":1240,"x_min":0,"x_max":0,"o":"m 1122 710 b 976 719 1086 713 1036 715 b 1032 921 1004 822 1025 900 b 928 1028 1051 986 981 1019 b 790 971 875 1035 799 1022 b 746 732 788 956 769 858 b 629 739 707 735 668 738 b 679 921 654 832 674 901 b 575 1028 699 986 628 1019 b 438 971 522 1035 446 1022 b 397 751 435 956 418 868 b 207 764 300 757 228 761 b 125 640 140 769 121 693 b 208 517 128 586 157 514 b 353 519 219 517 275 518 b 338 438 347 492 343 464 b 153 447 243 442 172 446 b 69 325 85 453 67 378 b 153 201 74 271 103 199 b 294 204 165 201 219 203 b 271 63 281 126 271 72 b 438 38 268 6 419 -24 b 485 208 449 78 465 139 b 649 213 539 210 593 211 b 624 63 633 131 624 72 b 789 38 621 6 772 -24 b 840 218 801 79 819 143 b 1076 226 967 221 1064 224 b 1067 394 1133 235 1131 389 b 892 406 1025 397 964 401 b 926 533 903 449 915 492 b 1132 542 1038 536 1121 539 b 1122 710 1188 550 1185 704 z m 686 418 b 544 425 639 421 592 422 b 571 525 553 458 563 492 b 707 528 615 526 661 528 b 686 418 700 492 693 454 z "},"$":{"ha":1078,"x_min":0,"x_max":0,"o":"m 646 718 b 529 917 572 771 529 849 b 624 1067 531 1006 569 1067 b 706 924 689 1065 710 988 b 611 797 701 857 663 801 b 772 707 611 797 642 707 b 988 931 890 707 992 783 b 642 1206 985 1085 857 1190 l 642 1356 b 539 1400 642 1375 596 1400 b 436 1356 482 1400 436 1385 l 436 1186 b 213 896 274 1138 210 1008 b 475 603 215 732 340 672 b 678 333 594 542 682 461 b 421 72 672 138 544 69 b 200 233 288 76 210 144 b 217 329 192 307 217 329 b 421 140 217 242 304 140 b 621 333 525 140 621 225 b 411 544 621 490 493 542 b 69 164 246 551 69 422 b 436 -240 69 -29 224 -204 l 436 -356 b 539 -400 436 -371 482 -400 b 642 -356 596 -400 642 -378 l 642 -235 b 1008 221 847 -192 1008 -40 b 646 718 1008 429 860 561 z "},"%":{"ha":1361,"x_min":0,"x_max":0,"o":"m 992 597 b 731 271 858 581 731 450 b 1033 0 731 147 810 0 b 1292 346 1246 0 1292 235 b 992 597 1292 501 1157 618 z m 1018 147 b 924 231 975 103 924 135 b 986 443 924 308 954 400 b 1096 396 1038 514 1096 510 b 1018 147 1097 322 1083 211 z m 631 954 b 332 1206 631 1110 497 1226 b 69 879 199 1188 69 1058 b 372 608 69 756 149 608 b 631 954 585 608 631 842 z m 263 839 b 325 1051 263 917 294 1008 b 436 1004 378 1122 435 1118 b 358 756 436 931 422 819 b 263 839 314 711 263 743 z m 1013 1200 b 868 1169 961 1217 892 1213 b 319 76 844 1126 328 113 b 479 24 308 21 449 -31 b 1088 1063 557 156 1058 1004 b 1013 1200 1117 1122 1063 1185 z "},"&":{"ha":1513,"x_min":0,"x_max":0,"o":"m 1172 464 b 818 351 1044 461 961 374 b 675 408 731 339 663 371 b 592 289 675 408 593 382 b 706 178 590 221 638 179 b 799 194 754 176 799 194 b 615 -86 889 117 790 -92 b 429 186 478 -82 397 36 b 582 383 453 299 532 381 b 572 481 631 385 644 481 b 475 751 500 481 431 611 b 763 953 525 910 679 954 b 1010 728 949 950 1011 813 b 993 632 1010 653 993 632 b 789 821 993 719 906 821 b 589 628 685 821 589 736 b 799 417 589 471 715 417 b 1140 797 961 417 1133 521 b 639 1208 1144 1014 960 1208 b 69 767 333 1208 69 1058 b 433 433 69 444 433 433 b 69 107 433 433 71 404 b 608 -247 69 -139 339 -247 b 1056 0 907 -247 1031 -118 b 890 239 1100 200 890 239 b 1008 251 890 239 940 250 b 1144 153 1056 251 1135 232 b 1108 51 1153 81 1108 51 b 1429 154 1207 6 1365 7 b 1172 464 1475 261 1419 471 z "},"'":{"ha":343,"x_min":0,"x_max":0,"o":"m 81 792 b 129 739 51 772 82 739 b 274 938 218 739 274 851 b 181 1029 274 988 232 1029 b 106 931 115 1029 76 972 b 81 792 132 892 115 815 z "},"(":{"ha":1006,"x_min":0,"x_max":0,"o":"m 883 -329 b 656 -310 849 -329 756 -369 b 497 1131 304 -100 317 826 b 885 1333 615 1332 733 1368 b 881 1463 938 1321 969 1457 b 69 504 525 1486 69 1175 b 869 -457 69 -235 579 -467 b 883 -329 951 -456 949 -329 z "},")":{"ha":1006,"x_min":0,"x_max":0,"o":"m 135 1464 b 121 1335 54 1461 57 1335 b 350 1317 157 1335 250 1376 b 508 -124 700 1107 689 179 b 121 -326 389 -325 272 -362 b 125 -457 68 -314 36 -450 b 936 501 481 -479 936 -169 b 135 1464 936 1242 426 1472 z "},"*":{"ha":469,"x_min":0,"x_max":0,"o":"m 392 953 b 318 1008 374 967 347 986 b 388 1044 354 1026 382 1040 b 389 1106 406 1054 400 1086 b 326 1143 378 1125 349 1161 b 285 1111 321 1139 306 1128 b 293 1174 289 1143 292 1165 b 228 1208 296 1201 250 1208 b 176 1175 206 1207 176 1197 b 179 1115 176 1169 178 1146 b 142 1143 161 1129 147 1140 b 79 1106 119 1161 90 1125 b 81 1044 69 1086 63 1054 b 150 1008 86 1040 114 1026 b 76 953 122 986 96 967 b 107 904 56 936 85 894 b 192 946 111 907 147 924 b 199 863 196 901 199 867 b 256 861 201 839 253 835 b 265 951 258 883 261 917 b 363 904 315 926 357 907 b 392 953 385 894 413 936 z "},"+":{"ha":772,"x_min":0,"x_max":0,"o":"m 657 403 l 482 403 l 482 568 b 386 610 482 586 439 610 b 290 568 333 610 290 596 l 290 403 l 115 403 b 69 332 100 403 69 371 b 115 261 69 293 93 261 l 290 261 l 290 69 b 386 28 290 56 333 28 b 482 69 439 28 482 49 l 482 261 l 657 261 b 703 332 678 261 703 293 b 657 403 703 371 688 403 z "},",":{"ha":343,"x_min":0,"x_max":0,"o":"m 181 185 b 106 86 115 185 76 128 b 81 -53 132 47 115 -29 b 129 -106 51 -72 82 -106 b 274 93 218 -106 274 7 b 181 185 274 143 232 185 z "},"-":{"ha":674,"x_min":0,"x_max":0,"o":"m 567 403 l 108 403 b 69 333 94 403 69 372 b 108 263 69 293 89 263 l 567 263 b 604 333 583 263 604 293 b 567 403 604 372 592 403 z "},".":{"ha":324,"x_min":0,"x_max":0,"o":"m 163 0 b 254 93 213 0 254 42 b 163 185 254 143 213 185 b 69 93 111 185 69 143 b 163 0 69 42 111 0 z "},"/":{"ha":796,"x_min":0,"x_max":0,"o":"m 619 1325 b 482 1269 567 1332 490 1319 b 69 -189 472 1218 71 -150 b 236 -214 67 -246 218 -275 b 724 1218 292 -24 704 1154 b 619 1325 742 1283 672 1318 z "},":":{"ha":324,"x_min":0,"x_max":0,"o":"m 163 481 b 254 574 213 481 254 522 b 163 665 254 624 213 665 b 69 574 111 665 69 624 b 163 481 69 522 111 481 z m 163 185 b 69 93 111 185 69 144 b 163 0 69 42 111 0 b 254 93 213 0 254 42 b 163 185 254 144 213 185 z "},";":{"ha":343,"x_min":0,"x_max":0,"o":"m 181 481 b 274 574 232 481 274 522 b 181 665 274 624 232 665 b 89 574 131 665 89 624 b 181 481 89 522 131 481 z m 181 185 b 106 86 115 185 76 128 b 81 -53 132 47 115 -29 b 129 -104 51 -72 82 -104 b 274 93 218 -104 274 7 b 181 185 274 144 232 185 z "},"<":{"ha":732,"x_min":0,"x_max":0,"o":"m 636 526 b 563 722 692 539 654 739 b 85 426 469 706 153 501 b 76 353 68 407 65 367 b 544 31 89 339 415 31 b 635 182 631 31 650 178 b 261 378 500 217 265 356 b 636 526 258 400 469 488 z "},"=":{"ha":765,"x_min":0,"x_max":0,"o":"m 114 403 l 650 403 b 696 474 671 403 696 435 b 650 544 696 513 681 544 l 114 544 b 69 474 99 544 69 513 b 114 403 69 435 92 403 z m 650 310 l 114 310 b 69 239 99 310 69 278 b 114 168 69 200 92 168 l 650 168 b 696 239 671 168 696 200 b 650 310 696 278 681 310 z "},">":{"ha":732,"x_min":0,"x_max":0,"o":"m 654 401 b 188 724 643 415 317 724 b 97 572 100 724 82 576 b 469 376 231 536 467 397 b 96 228 474 354 263 267 b 169 32 40 214 78 15 b 647 328 261 49 578 253 b 654 401 664 346 667 388 z "},"?":{"ha":889,"x_min":0,"x_max":0,"o":"m 321 -62 b 229 -156 271 -62 229 -104 b 321 -247 229 -206 271 -247 b 414 -156 372 -247 414 -206 b 321 -62 414 -104 372 -62 z m 304 0 b 400 29 385 0 400 29 b 819 856 304 261 819 489 b 419 1208 819 1072 636 1208 b 69 903 231 1208 69 1064 b 325 674 69 722 203 674 b 482 832 386 674 482 715 b 332 976 482 914 410 976 b 181 835 244 976 179 900 b 169 907 181 835 158 853 b 332 1026 182 965 242 1028 b 529 838 440 1026 531 961 b 207 113 524 568 208 336 b 304 0 207 38 251 0 z "},"@":{"ha":1381,"x_min":0,"x_max":0,"o":"m 1306 507 b 726 954 1264 828 944 954 b 76 419 447 954 129 799 b 569 -154 22 28 294 -154 b 824 -35 713 -154 821 -92 b 765 35 828 22 765 35 b 460 -26 761 -24 604 -87 b 372 617 268 53 225 351 b 1047 699 540 917 907 885 b 1119 282 1128 590 1139 413 b 944 332 1078 24 939 67 b 969 610 949 475 969 610 b 779 639 963 682 792 681 b 768 592 775 626 771 610 b 625 668 739 635 693 668 b 381 272 499 668 381 513 b 585 1 381 149 421 1 b 765 176 681 0 735 81 b 1047 3 824 8 982 -3 b 1306 507 1207 13 1339 251 z m 725 453 b 683 275 721 388 704 308 b 633 317 656 228 633 260 b 657 478 633 361 640 431 b 725 453 692 578 732 565 z "},"A":{"ha":1314,"x_min":0,"x_max":0,"o":"m 1371 -56 b 1288 783 1231 56 1222 381 b 1432 1029 1331 1050 1432 1029 b 1275 1122 1433 1093 1354 1125 b 1271 1122 1274 1122 1272 1122 b 1025 1061 1206 1122 1117 1113 b 567 1208 844 1024 788 1208 b 246 863 354 1208 243 1044 b 532 546 251 632 396 546 b 706 721 600 546 706 590 b 539 882 707 813 626 882 b 369 725 442 882 369 799 b 354 804 369 725 349 743 b 539 939 363 879 440 939 b 807 918 658 940 678 903 b 875 938 831 921 854 928 b 632 357 779 825 690 644 b 351 72 582 110 450 75 b 131 233 231 71 140 144 b 149 329 122 308 149 329 b 351 140 147 242 235 140 b 551 335 456 140 551 225 b 342 544 551 490 425 544 b 0 164 179 544 7 442 b 383 -247 -4 -53 129 -247 b 839 176 664 -247 785 -40 l 1010 176 b 1024 -17 1011 100 1015 35 b 1265 -247 1044 -150 1135 -246 b 1494 -94 1343 -247 1456 -215 b 1371 -56 1494 -94 1428 -100 z m 1010 333 l 868 333 b 1081 943 911 646 1003 842 b 1010 333 1039 793 1015 550 z "},"B":{"ha":1443,"x_min":0,"x_max":0,"o":"m 1204 390 b 1415 722 1319 446 1408 544 b 807 1208 1425 1021 1139 1208 b 249 792 497 1208 249 1071 b 486 546 249 628 363 546 b 624 690 564 546 624 611 b 479 829 624 767 563 829 b 369 774 401 829 369 774 b 374 822 369 774 358 786 b 582 956 400 885 476 935 b 824 954 653 969 740 969 b 678 803 763 942 704 879 b 632 357 644 710 642 607 b 351 72 622 104 450 74 b 131 233 231 69 140 143 b 149 328 122 307 149 328 b 351 140 147 242 235 140 b 551 333 456 140 551 224 b 342 544 551 490 425 544 b 0 163 179 544 7 440 b 383 -249 -4 -54 129 -249 b 811 56 618 -249 749 -122 b 1100 -247 824 -58 888 -249 b 1360 279 1389 -247 1486 97 b 1204 390 1321 333 1267 368 z m 1086 107 b 858 290 1049 35 850 75 b 858 296 858 293 858 294 b 860 326 858 307 860 317 b 861 326 860 326 860 326 b 1086 107 1018 326 1138 208 z m 864 431 b 878 744 868 572 869 675 b 938 922 886 825 907 897 b 1124 713 1036 883 1113 815 b 864 431 1142 542 1019 433 z "},"C":{"ha":1197,"x_min":0,"x_max":0,"o":"m 1165 140 b 568 231 1172 467 625 481 b 629 58 540 111 629 58 b 826 51 633 154 821 183 b 643 -96 829 -25 750 -103 b 383 443 414 -81 343 194 b 836 942 447 849 706 949 b 1067 726 1001 932 1068 813 b 1050 632 1067 653 1050 632 b 846 821 1050 719 964 821 b 646 626 742 819 646 736 b 856 415 646 471 774 415 b 1197 797 1018 415 1192 519 b 717 1208 1203 1014 1011 1208 b 0 429 443 1208 24 1007 b 665 -247 -14 46 268 -247 b 1165 140 972 -247 1161 -128 z "},"D":{"ha":1525,"x_min":0,"x_max":0,"o":"m 775 1208 b 249 792 465 1208 249 1038 b 486 546 249 628 363 546 b 624 690 563 546 624 611 b 479 829 624 767 563 829 b 369 774 401 829 369 774 b 374 822 369 774 358 786 b 582 956 400 885 475 935 b 836 956 663 971 751 974 b 678 803 771 950 707 885 b 632 357 644 710 642 607 b 351 72 622 104 450 74 b 131 233 231 69 140 143 b 149 328 122 307 149 328 b 351 140 147 242 235 140 b 551 333 456 140 551 224 b 342 544 551 490 425 544 b 0 163 179 544 7 440 b 383 -249 -4 -54 129 -249 b 813 57 618 -249 749 -122 b 1132 -247 832 -57 915 -247 b 1483 369 1406 -249 1483 57 b 775 1208 1483 860 1235 1208 z m 999 72 b 860 324 889 74 857 247 b 860 328 860 325 860 326 b 860 332 860 329 860 331 b 878 744 868 526 868 658 b 936 922 886 825 906 897 b 1124 713 1017 883 1086 818 b 999 72 1204 488 1143 71 z "},"E":{"ha":1071,"x_min":0,"x_max":0,"o":"m 538 -247 b 1039 140 838 -247 1042 -128 b 442 231 1035 457 499 481 b 501 58 414 111 501 58 b 700 51 507 154 694 183 b 535 -96 703 -25 638 -96 b 360 186 399 -94 328 35 b 513 383 383 299 463 381 b 503 481 561 385 575 481 b 406 751 431 481 361 611 b 693 953 456 910 610 954 b 940 728 879 950 942 813 b 924 632 940 653 924 632 b 719 821 924 719 836 821 b 519 626 615 821 519 736 b 729 417 519 471 646 417 b 1071 797 892 417 1064 521 b 569 1208 1075 1014 890 1208 b 0 767 264 1208 0 1058 b 364 433 0 444 364 433 b 0 107 364 433 1 404 b 538 -247 0 -139 269 -247 z "},"F":{"ha":953,"x_min":0,"x_max":0,"o":"m 1218 1208 b 1118 1088 1125 1206 1090 1136 b 1146 1103 1118 1088 1128 1103 b 1069 983 1192 1100 1192 985 b 926 1015 1019 982 972 994 b 1017 1089 954 1074 990 1092 b 921 1169 1017 1089 1004 1161 b 778 1099 885 1172 829 1154 b 486 1208 688 1154 594 1208 b 167 865 274 1208 163 1046 b 451 547 172 635 315 547 b 626 724 521 547 626 593 b 460 885 626 815 546 885 b 290 728 363 885 289 800 b 275 807 290 728 268 746 b 449 942 283 882 347 940 b 674 881 518 942 592 914 b 671 871 672 876 672 874 b 639 544 653 785 646 686 b 638 544 639 544 638 544 b 583 361 554 546 528 419 b 628 385 583 361 594 383 b 633 385 629 385 632 385 b 632 357 632 375 632 367 b 351 72 622 106 450 75 b 131 233 231 69 140 143 b 149 329 122 307 149 329 b 351 140 147 242 235 140 b 551 333 456 140 551 224 b 342 544 551 490 425 544 b 0 164 179 544 7 440 b 383 -247 -4 -53 129 -247 b 860 333 728 -247 844 21 b 863 386 861 351 863 368 b 950 486 932 389 950 439 b 919 578 951 557 919 578 b 883 544 919 578 921 544 b 869 544 879 544 875 544 b 882 803 872 647 876 731 b 1093 769 947 783 1017 769 b 1403 1038 1278 767 1403 878 b 1218 1208 1403 1163 1311 1210 z "},"G":{"ha":1413,"x_min":0,"x_max":0,"o":"m 1389 608 b 1328 664 1386 639 1358 658 b 1097 1208 1471 893 1401 1208 b 538 551 832 1208 575 971 b 418 543 497 546 457 543 b 131 713 218 543 142 640 b 149 808 119 786 149 808 b 351 619 147 721 235 619 b 551 813 456 619 551 703 b 342 1024 551 969 425 1024 b 0 643 179 1024 7 919 b 446 250 -4 426 149 250 b 567 254 485 250 525 251 b 885 0 621 94 739 -3 b 1194 193 1031 3 1129 85 b 981 -96 1179 39 1101 -67 b 758 -37 839 -129 758 -37 b 1061 -347 738 -117 783 -346 b 1360 -147 1232 -347 1335 -274 b 1364 329 1389 0 1351 92 b 1389 608 1372 472 1389 608 z m 1199 1076 b 1078 779 1258 1067 1261 932 b 868 647 1017 728 944 683 b 1199 1076 921 939 1103 1090 z m 1008 251 b 890 324 956 249 917 278 b 1218 529 1007 367 1119 432 b 1008 251 1186 365 1115 254 z "},"H":{"ha":1313,"x_min":0,"x_max":0,"o":"m 1369 -56 b 1286 782 1229 54 1221 379 b 1431 1029 1329 1050 1431 1029 b 1125 1056 1433 1139 1193 1154 b 1013 429 1064 965 1025 690 l 865 429 b 910 968 875 686 875 843 b 1017 1090 936 1065 985 1093 b 921 1169 1017 1090 1004 1161 b 825 1139 896 1172 861 1164 b 486 1208 725 1089 625 1208 b 167 865 274 1208 163 1046 b 451 547 172 635 315 547 b 626 724 521 547 626 593 b 460 885 626 815 546 885 b 290 728 361 885 289 800 b 275 807 290 728 268 746 b 460 942 283 882 360 951 b 708 990 589 929 669 956 b 671 871 693 956 681 917 b 632 357 646 751 642 608 b 351 72 622 106 450 75 b 131 233 231 69 140 143 b 149 329 122 307 149 329 b 351 140 147 242 235 140 b 551 333 456 140 551 224 b 342 544 551 490 425 544 b 0 164 179 544 7 440 b 383 -247 -4 -53 129 -247 b 856 272 704 -247 828 -12 l 1007 272 b 1022 -17 1007 157 1011 54 b 1264 -247 1043 -151 1133 -247 b 1493 -96 1342 -249 1454 -215 b 1369 -56 1493 -96 1426 -100 z "},"I":{"ha":906,"x_min":0,"x_max":0,"o":"m 921 1169 b 825 1139 896 1172 861 1164 b 486 1208 725 1089 625 1208 b 167 865 274 1208 163 1046 b 451 547 172 635 315 547 b 626 724 521 547 626 593 b 460 885 626 815 546 885 b 290 728 361 885 289 800 b 275 807 290 728 268 746 b 460 942 283 882 360 951 b 708 990 589 929 669 956 b 671 871 693 956 681 917 b 632 357 646 751 642 608 b 351 72 622 106 450 75 b 131 233 231 69 140 143 b 149 329 122 307 149 329 b 351 140 147 242 235 140 b 551 333 456 140 551 224 b 342 544 551 490 425 544 b 0 164 179 544 7 440 b 383 -247 -4 -53 129 -247 b 860 333 728 -247 844 21 b 910 968 876 649 871 828 b 1017 1089 935 1065 985 1093 b 921 1169 1017 1090 1004 1161 z "},"J":{"ha":974,"x_min":0,"x_max":0,"o":"m 1058 1169 b 897 1136 1025 1174 963 1172 b 486 1208 793 1108 615 1208 b 167 865 274 1208 163 1046 b 451 547 172 635 315 547 b 626 724 521 547 626 593 b 460 885 626 815 546 885 b 290 728 361 885 289 800 b 275 807 290 728 268 746 b 460 942 283 882 360 957 b 747 967 578 924 678 939 b 711 878 735 940 722 911 b 642 235 647 685 663 406 b 351 -26 618 35 475 -29 b 131 135 218 -24 140 44 b 149 229 122 208 149 229 b 351 42 147 142 235 42 b 551 235 456 42 551 125 b 342 446 551 392 425 446 b 0 64 179 446 7 342 b 415 -347 -4 -153 161 -346 b 925 201 719 -347 897 -154 b 990 976 951 532 914 815 b 1154 1090 1033 1069 1106 1101 b 1058 1169 1154 1090 1142 1161 z "},"K":{"ha":1313,"x_min":0,"x_max":0,"o":"m 1354 -42 b 1261 185 1299 7 1274 100 b 1036 322 1242 318 1036 322 b 1214 444 1036 322 1160 324 b 1286 782 1256 538 1275 715 b 1431 1029 1333 1054 1431 1029 b 1121 1050 1440 1142 1201 1164 b 1015 522 1029 921 1050 629 b 864 400 986 429 925 404 b 910 968 875 675 874 838 b 1017 1090 936 1065 985 1093 b 921 1169 1017 1090 1004 1161 b 825 1139 896 1172 861 1164 b 486 1208 725 1089 625 1208 b 167 865 274 1208 163 1046 b 451 547 172 635 315 547 b 626 724 521 547 626 593 b 460 885 626 815 546 885 b 290 728 361 885 289 800 b 275 807 290 728 268 746 b 460 942 283 882 360 951 b 708 990 589 929 669 956 b 671 871 693 956 681 917 b 632 357 646 751 642 608 b 351 72 622 106 450 75 b 131 233 231 69 140 143 b 149 329 122 307 149 329 b 351 140 147 242 235 140 b 551 333 456 140 551 224 b 342 544 551 490 425 544 b 0 164 179 544 7 440 b 383 -247 -4 -53 129 -247 b 853 251 697 -247 822 -24 b 854 251 853 251 854 251 b 993 174 922 256 969 244 b 1022 -17 1004 142 1014 51 b 1264 -247 1038 -151 1133 -247 b 1493 -94 1342 -249 1457 -214 b 1354 -42 1493 -94 1421 -101 z "},"L":{"ha":1149,"x_min":0,"x_max":0,"o":"m 1203 -18 b 1085 -74 1203 -18 1172 -81 b 785 47 972 -65 890 47 b 785 47 785 47 785 47 b 856 329 839 131 861 232 b 1075 529 946 374 1021 439 b 894 1207 1272 863 1144 1208 b 597 553 668 1207 553 963 b 418 543 539 544 478 543 b 131 713 218 543 142 640 b 149 807 119 785 149 807 b 351 618 147 719 235 618 b 551 813 456 619 551 703 b 342 1024 551 968 425 1024 b 0 642 179 1024 7 919 b 446 249 -4 425 149 249 b 603 258 500 249 551 251 b 407 28 579 136 513 67 b 543 -118 346 7 453 -142 b 1033 -347 724 -93 786 -347 b 1240 -196 1157 -347 1224 -275 b 1203 -18 1260 -110 1222 -36 z m 949 1029 b 1006 811 1046 1054 1065 919 b 829 626 957 725 897 667 b 949 1029 821 893 882 1013 z "},"M":{"ha":1579,"x_min":0,"x_max":0,"o":"m 1638 -57 b 1554 782 1496 53 1489 379 b 1699 1028 1597 1049 1699 1028 b 1508 1117 1700 1100 1597 1131 b 1506 1117 1507 1117 1506 1117 b 1211 849 1465 1110 1335 1083 b 1092 544 1142 719 1092 544 b 692 1208 1093 778 1047 1208 b 321 854 544 1208 339 1117 b 572 544 306 646 443 544 b 708 689 649 544 708 610 b 565 828 708 765 649 828 b 456 772 488 828 456 772 b 457 838 456 772 443 792 b 708 954 489 951 614 979 b 875 808 790 932 842 879 b 647 356 747 790 681 554 b 343 71 606 107 464 65 b 146 233 225 78 156 143 b 164 328 138 307 164 328 b 367 139 164 240 250 139 b 568 333 471 140 568 224 b 358 544 567 489 440 544 b 0 172 194 544 4 410 b 399 -249 -4 -31 111 -249 b 871 292 743 -249 840 32 b 903 722 888 429 871 632 b 919 210 938 569 919 372 b 1068 0 919 85 982 0 b 1181 61 1144 0 1179 46 b 1135 163 1181 61 1136 72 b 1325 847 1129 424 1231 681 b 1290 -18 1275 583 1261 171 b 1531 -249 1310 -151 1401 -247 b 1760 -96 1610 -249 1722 -217 b 1638 -57 1760 -96 1694 -101 z "},"N":{"ha":1292,"x_min":0,"x_max":0,"o":"m 1517 1151 b 1113 1010 1446 1231 1182 1260 b 1067 431 1053 793 1067 431 b 594 1208 1056 667 979 1208 b 256 854 447 1208 256 1103 b 507 544 256 646 378 544 b 644 689 583 544 644 610 b 500 828 644 765 583 828 b 390 774 422 828 390 774 b 392 838 390 774 379 792 b 643 954 424 951 547 974 b 803 871 708 942 761 914 b 632 357 729 840 657 710 b 343 72 615 132 464 65 b 146 233 225 78 156 143 b 164 328 138 307 164 328 b 367 140 164 242 250 140 b 568 333 471 140 568 224 b 358 544 567 490 440 544 b 0 172 194 544 4 410 b 399 -249 -4 -31 111 -249 b 851 235 743 -247 833 76 b 861 793 878 451 836 694 b 993 -39 950 635 974 363 b 1208 -249 1001 -207 1104 -249 b 1396 -161 1313 -247 1376 -203 b 1296 -42 1396 -161 1333 -126 b 1296 801 1176 225 1263 672 b 1554 1028 1361 1057 1490 1056 b 1517 1151 1554 1028 1567 1096 z "},"O":{"ha":1525,"x_min":0,"x_max":0,"o":"m 1276 476 b 1436 632 1338 521 1392 571 b 1129 1208 1607 861 1549 1208 b 519 549 893 1208 593 1006 b 418 543 483 546 449 543 b 131 713 218 543 142 640 b 149 808 118 786 149 808 b 351 619 147 721 235 619 b 551 813 456 619 551 703 b 342 1024 551 969 425 1024 b 0 643 179 1024 7 919 b 446 250 -4 426 149 250 b 511 251 467 250 489 250 b 1049 -247 547 -50 735 -247 b 1486 239 1347 -247 1508 -8 b 1276 476 1472 383 1379 461 z m 1261 1031 b 1208 779 1353 1029 1390 932 b 899 625 1133 717 1019 664 b 1261 1031 986 881 1154 1031 z m 1051 -76 b 843 294 915 -72 843 89 b 1013 343 899 307 956 324 b 1001 211 985 275 1001 211 b 1194 183 1013 243 1142 292 b 1051 -76 1243 81 1174 -79 z "},"P":{"ha":1415,"x_min":0,"x_max":0,"o":"m 807 1208 b 249 792 497 1208 249 1069 b 486 544 249 626 363 544 b 624 690 564 544 624 610 b 479 828 624 765 563 828 b 369 774 401 828 369 774 b 374 822 369 774 358 785 b 582 956 400 883 475 935 b 824 954 653 968 740 969 b 678 803 763 942 704 879 b 632 356 644 708 642 607 b 351 71 622 104 450 74 b 131 232 231 69 140 143 b 149 328 122 307 149 328 b 351 139 147 240 235 139 b 551 333 456 139 551 224 b 342 543 551 489 425 543 b 0 163 179 543 7 440 b 383 -249 -4 -54 129 -249 b 860 326 725 -249 846 17 b 861 326 860 326 860 326 b 1415 721 1083 326 1403 381 b 807 1208 1425 1019 1139 1208 z m 864 431 b 878 744 868 572 869 674 b 936 922 886 825 906 897 b 1124 711 1035 883 1113 815 b 864 431 1142 542 1019 433 z "},"Q":{"ha":1521,"x_min":0,"x_max":0,"o":"m 1685 -17 b 1500 -71 1685 -17 1651 -82 b 1418 -46 1474 -68 1446 -60 b 1486 239 1469 38 1492 139 b 1276 478 1476 385 1381 461 b 1436 632 1338 521 1392 571 b 1129 1208 1607 861 1549 1208 b 519 549 893 1208 593 1006 b 418 543 483 546 449 543 b 131 713 218 543 142 640 b 149 808 119 786 149 808 b 351 619 147 721 235 619 b 551 813 456 619 551 703 b 342 1024 551 969 425 1024 b 0 643 179 1024 7 919 b 446 250 -4 426 149 250 b 511 251 467 250 489 250 b 1049 -247 547 -50 735 -247 b 1263 -196 1131 -247 1203 -228 b 1515 -344 1336 -276 1418 -346 b 1724 -194 1639 -344 1707 -272 b 1685 -17 1742 -107 1706 -33 z m 1261 1031 b 1208 779 1353 1029 1390 932 b 899 625 1133 717 1021 664 b 1261 1031 986 881 1154 1031 z m 1051 -76 b 843 294 915 -72 843 89 b 1013 343 899 307 956 324 b 1001 211 985 275 1001 211 b 1194 183 1013 243 1142 292 b 1208 85 1208 154 1213 119 b 1047 140 1156 117 1101 140 b 969 43 951 140 969 43 b 1136 -49 1022 64 1076 18 b 1051 -76 1113 -67 1083 -76 z "},"R":{"ha":1410,"x_min":0,"x_max":0,"o":"m 1354 -40 b 1261 186 1299 8 1272 101 b 1138 364 1249 269 1200 326 b 1415 721 1283 411 1408 513 b 807 1208 1425 1021 1139 1208 b 249 792 497 1208 249 1071 b 486 546 249 628 363 546 b 624 690 564 546 624 611 b 479 829 624 767 563 829 b 369 774 401 829 369 774 b 374 822 369 774 358 786 b 582 956 400 885 476 935 b 824 954 653 969 740 969 b 678 803 763 942 704 879 b 632 357 644 710 642 607 b 351 72 622 104 450 74 b 131 233 231 69 140 143 b 149 328 122 307 149 328 b 351 140 147 240 235 140 b 551 333 456 140 551 224 b 342 544 551 490 425 544 b 0 163 179 544 7 440 b 383 -249 -4 -54 129 -249 b 860 326 725 -249 846 18 b 861 326 860 326 860 326 b 972 215 943 326 965 282 b 1007 -103 978 160 969 -14 b 1264 -246 1046 -194 1133 -246 b 1493 -94 1342 -247 1457 -212 b 1354 -40 1493 -94 1421 -100 z m 1124 713 b 864 431 1142 542 1019 433 b 878 744 868 572 869 674 b 936 922 886 825 906 897 b 1124 713 1035 883 1113 815 z "},"S":{"ha":1036,"x_min":0,"x_max":0,"o":"m 1092 965 b 831 1208 1097 1082 994 1208 b 543 1057 713 1208 604 1154 b 346 1114 490 1086 428 1108 b 0 792 239 1122 0 1071 b 238 546 0 628 114 546 b 375 690 315 546 375 611 b 231 829 375 767 314 829 b 121 774 154 829 121 774 b 125 822 121 774 110 786 b 281 886 151 885 239 892 b 490 824 342 879 413 853 b 685 333 510 631 685 542 b 428 74 686 139 551 71 b 207 235 294 76 217 144 b 225 331 199 308 225 331 b 428 142 224 243 311 142 b 628 335 532 142 628 225 b 418 546 628 492 501 546 b 76 165 256 546 83 442 b 492 -246 72 -53 238 -246 b 1001 269 796 -247 1003 -53 b 817 743 1001 472 886 618 b 1092 965 963 738 1083 807 z m 767 922 b 767 926 767 924 767 925 b 983 985 792 1050 965 1051 b 819 908 996 932 924 892 b 767 922 800 911 783 917 z "},"T":{"ha":917,"x_min":0,"x_max":0,"o":"m 1218 1208 b 1118 1088 1125 1207 1090 1136 b 1146 1103 1118 1088 1128 1103 b 1069 983 1192 1100 1192 986 b 926 1015 1019 982 972 996 b 1017 1090 953 1074 990 1092 b 921 1169 1017 1090 1004 1161 b 778 1099 885 1174 829 1154 b 486 1208 688 1154 594 1208 b 167 865 274 1208 163 1046 b 451 549 172 635 315 549 b 626 724 521 549 626 593 b 460 885 626 815 546 885 b 290 728 361 885 289 801 b 275 807 290 728 268 746 b 449 942 283 882 347 940 b 674 881 518 942 592 914 b 671 871 672 878 672 874 b 632 357 646 751 642 608 b 351 72 622 106 450 75 b 131 233 231 69 140 144 b 149 329 122 307 149 329 b 351 140 147 242 235 140 b 551 333 456 140 551 225 b 342 544 551 490 425 544 b 0 164 179 544 7 440 b 383 -247 -4 -53 129 -247 b 860 333 728 -247 844 22 b 882 803 871 539 872 686 b 1093 769 947 785 1017 771 b 1403 1038 1278 767 1403 878 b 1218 1208 1403 1163 1311 1210 z "},"U":{"ha":1322,"x_min":0,"x_max":0,"o":"m 1379 -56 b 1296 783 1238 54 1231 381 b 1440 1029 1339 1050 1440 1029 b 1135 1056 1442 1139 1201 1156 b 1101 983 1122 1039 1111 1014 b 1100 982 1101 983 1100 983 b 1094 964 1099 978 1097 972 b 1061 817 1082 922 1071 872 b 906 194 1024 642 968 372 b 681 129 808 -79 649 -32 b 853 642 707 258 822 419 b 415 1208 890 925 756 1208 b 0 765 161 1208 0 982 b 342 417 0 525 179 417 b 551 628 424 417 551 471 b 351 821 551 736 456 821 b 147 632 235 821 147 719 b 135 729 147 632 118 656 b 351 889 151 806 231 885 b 606 596 471 893 636 819 b 364 17 574 358 367 264 b 635 -247 363 -140 465 -247 b 999 93 872 -247 965 -10 b 1018 167 1003 107 1010 133 b 1032 -17 1019 94 1024 32 b 1272 -247 1053 -150 1143 -246 b 1503 -94 1351 -247 1464 -215 b 1379 -56 1503 -94 1436 -100 z "},"V":{"ha":1247,"x_min":0,"x_max":0,"o":"m 1511 1028 b 1249 1208 1511 1028 1474 1208 b 1000 989 1104 1208 1033 1103 b 929 199 931 753 953 376 b 764 104 894 -54 775 -44 b 853 642 754 232 822 419 b 415 1208 890 925 756 1208 b 0 765 161 1208 0 982 b 342 417 0 524 179 417 b 551 628 424 417 551 471 b 351 821 551 736 456 821 b 147 632 235 821 147 719 b 135 728 147 632 118 656 b 351 889 151 806 231 885 b 606 596 471 892 636 819 b 489 31 574 358 472 243 b 831 -247 504 -153 661 -247 b 1194 226 1043 -247 1183 -51 b 1264 842 1207 506 1243 753 b 1511 1028 1331 1117 1511 1028 z "},"W":{"ha":2172,"x_min":0,"x_max":0,"o":"m 2156 776 b 1813 1208 2140 1082 1976 1208 b 1558 932 1561 1208 1558 932 b 1826 614 1601 986 1799 950 b 1660 0 1850 336 1799 1 b 1504 251 1574 0 1507 129 b 1633 681 1494 624 1633 681 b 1381 715 1636 790 1447 826 b 1317 467 1350 665 1326 579 b 1317 465 1317 467 1317 465 b 1063 0 1281 121 1181 0 b 857 314 939 -1 868 125 b 1307 632 1021 368 1183 465 b 1097 1208 1476 863 1415 1208 b 521 550 842 1208 589 954 b 418 544 486 546 451 544 b 131 713 218 543 142 642 b 149 808 118 786 149 808 b 351 619 147 721 235 619 b 551 814 456 619 551 704 b 342 1024 551 969 425 1024 b 0 643 179 1024 7 919 b 446 250 -4 426 149 250 b 511 251 467 250 489 250 b 983 -247 549 -50 736 -247 b 1353 21 1150 -247 1275 -133 b 1671 -247 1408 -160 1517 -247 b 2156 776 1943 -247 2183 238 z m 1199 1076 b 1078 781 1258 1067 1261 933 b 896 661 1024 735 963 694 b 1199 1076 965 935 1106 1090 z "},"X":{"ha":1433,"x_min":0,"x_max":0,"o":"m 1049 544 b 839 333 967 544 839 490 b 1039 140 839 224 935 140 b 1243 329 1157 140 1243 242 b 1257 232 1243 329 1272 306 b 1039 72 1239 154 1160 76 b 785 365 919 68 761 140 b 811 490 789 410 800 451 b 1260 1122 1149 729 1281 915 b 896 1160 1250 1218 953 1240 b 854 814 896 1160 943 1006 b 415 1208 826 1029 686 1208 b 0 764 161 1208 0 982 b 342 415 0 524 179 415 b 551 626 424 415 551 471 b 351 821 551 736 456 821 b 147 632 235 821 147 719 b 135 728 147 632 118 656 b 351 888 151 806 231 885 b 606 596 471 892 633 819 b 586 504 601 563 594 533 b 250 -83 354 317 260 97 b 558 -211 240 -250 560 -283 b 539 131 558 -211 488 -58 b 975 -247 571 -78 711 -247 b 1390 196 1229 -247 1390 -21 b 1049 544 1390 436 1211 544 z "},"Y":{"ha":1239,"x_min":0,"x_max":0,"o":"m 1044 1035 b 968 683 1006 954 982 821 b 967 683 968 683 967 683 b 797 288 865 -79 769 135 b 853 640 821 421 843 526 b 415 1208 875 926 756 1207 b 0 764 161 1208 0 981 b 342 415 0 524 179 415 b 551 626 424 415 551 469 b 351 819 551 736 456 819 b 147 632 235 819 147 718 b 135 728 147 632 118 656 b 351 888 151 806 231 883 b 606 594 471 892 633 807 b 489 290 586 444 500 429 b 794 0 476 106 625 0 b 940 101 858 0 906 39 b 772 -97 925 -17 874 -72 b 550 -39 632 -131 550 -39 b 853 -349 529 -118 575 -347 b 1157 -117 1024 -349 1113 -258 b 1207 701 1218 81 1151 308 b 1364 1029 1257 1054 1364 1029 b 1044 1035 1369 1139 1104 1163 z "},"Z":{"ha":1193,"x_min":0,"x_max":0,"o":"m 961 97 b 696 224 857 119 774 167 b 754 333 718 261 736 297 b 1118 839 829 485 985 793 b 1249 1029 1193 875 1249 938 b 1078 1208 1249 1129 1171 1210 b 979 1088 985 1206 950 1136 b 1007 1101 979 1088 989 1103 b 931 1029 1053 1100 1031 1029 b 379 1208 753 1029 603 1208 b 60 865 167 1208 56 1046 b 344 547 65 635 208 547 b 519 724 413 547 519 593 b 353 885 519 814 439 885 b 182 728 254 885 182 800 b 168 807 182 728 161 746 b 342 940 176 882 240 940 b 813 825 485 942 614 864 b 717 742 779 806 746 779 b 486 411 643 646 571 510 b 1 314 306 557 24 533 b 332 0 -15 153 82 0 b 528 47 411 0 475 18 b 957 -247 653 -101 811 -247 b 1179 -67 1061 -247 1147 -204 b 1171 126 1207 53 1171 126 b 961 97 1171 126 1146 56 z m 218 364 b 331 294 235 379 272 358 b 294 288 319 292 307 289 b 218 364 231 281 189 336 z "},"a":{"ha":628,"x_min":0,"x_max":0,"o":"m 631 403 b 604 278 622 349 617 304 b 550 331 579 222 549 257 b 575 610 553 474 575 610 b 383 638 568 681 397 681 b 374 589 381 625 376 608 b 231 667 346 633 299 667 b -14 272 104 667 -14 513 b 189 0 -14 147 25 0 b 358 142 274 0 326 61 b 507 0 382 38 446 0 b 697 400 665 0 697 308 b 631 403 697 440 638 439 z m 331 451 b 289 274 326 386 310 307 b 239 315 260 226 239 258 b 263 478 239 360 246 429 b 331 451 297 576 338 564 z "},"b":{"ha":610,"x_min":0,"x_max":0,"o":"m 376 667 b 214 540 293 667 243 614 b 343 928 253 928 343 928 b 90 963 346 1036 157 1074 b 0 231 40 878 -4 469 b 156 0 3 107 40 0 b 229 29 207 0 219 15 b 207 94 229 29 215 39 b 203 142 206 106 204 122 b 372 0 228 65 278 0 b 581 386 494 0 581 135 b 376 667 582 568 510 667 z m 307 318 b 254 333 283 224 251 233 b 281 499 256 381 264 447 b 318 510 296 543 311 571 b 307 318 325 457 319 368 z "},"c":{"ha":460,"x_min":0,"x_max":0,"o":"m 463 403 b 428 294 458 367 449 324 b 249 369 374 215 257 243 b 324 546 239 500 293 546 b 360 515 356 544 360 515 b 286 374 276 536 238 429 b 422 388 317 340 386 331 b 279 667 476 476 453 667 b -14 313 117 667 -6 524 b 242 0 -22 97 94 0 b 528 399 432 0 528 192 b 463 403 528 440 467 439 z "},"d":{"ha":628,"x_min":0,"x_max":0,"o":"m 631 403 b 604 278 622 349 617 304 b 553 336 579 222 551 263 b 694 928 565 908 694 928 b 428 932 697 1043 481 1082 b 369 594 413 886 388 757 b 231 667 340 636 296 667 b -14 271 104 667 -14 511 b 189 0 -14 147 25 0 b 360 142 274 0 326 61 b 507 0 382 38 446 0 b 697 400 665 0 697 308 b 631 403 697 440 638 439 z m 331 451 b 289 274 326 386 310 307 b 239 315 260 226 239 258 b 263 476 239 360 246 429 b 331 451 297 576 338 564 z "},"e":{"ha":460,"x_min":0,"x_max":0,"o":"m 463 403 b 428 294 458 367 449 324 b 250 357 376 218 265 242 b 428 397 268 321 376 299 b 279 667 476 490 454 667 b -14 313 117 667 -6 524 b 242 0 -22 97 94 0 b 528 399 432 0 528 192 b 463 403 528 440 467 439 z m 324 546 b 249 431 390 544 363 419 b 324 546 257 515 299 546 z "},"f":{"ha":279,"x_min":0,"x_max":0,"o":"m 347 400 b 282 403 347 440 289 439 b 256 278 274 349 267 304 b 200 250 242 247 219 242 b 346 928 210 915 346 928 b 78 932 347 1043 131 1082 b 0 236 53 856 0 549 b 183 -344 0 -97 38 -343 b 319 -46 278 -346 319 -225 b 271 169 319 38 299 115 b 347 400 343 226 347 351 z m 231 -60 b 199 129 219 -62 201 -36 b 235 61 213 118 224 97 b 231 -60 246 22 249 -57 z "},"g":{"ha":589,"x_min":0,"x_max":0,"o":"m 550 331 b 575 610 558 474 575 610 b 383 638 568 681 397 679 b 374 588 381 625 376 608 b 231 667 346 632 299 667 b -14 271 104 667 -14 511 b 189 0 -14 147 25 0 b 349 118 265 0 315 49 b 232 -122 344 -1 326 -89 b 69 -96 133 -156 69 -96 b 311 -346 29 -118 78 -346 b 554 -119 447 -346 531 -250 b 550 331 578 7 538 93 z m 331 451 b 289 274 326 386 310 307 b 239 315 260 226 239 258 b 263 476 239 360 246 429 b 331 451 297 576 338 564 z "},"h":{"ha":589,"x_min":0,"x_max":0,"o":"m 592 403 b 565 278 583 347 578 304 b 511 331 540 222 508 257 b 522 504 514 421 518 451 b 372 667 531 626 443 665 b 214 549 321 667 256 643 b 343 926 254 928 343 926 b 90 963 346 1036 157 1074 b 0 231 40 878 -4 469 b 156 0 3 107 40 0 b 261 61 207 0 253 40 b 236 339 228 85 219 204 b 314 421 275 626 318 572 b 311 236 313 368 311 325 b 468 0 310 58 392 0 b 658 400 626 0 658 308 b 592 403 658 440 599 439 z "},"i":{"ha":279,"x_min":0,"x_max":0,"o":"m 142 688 b 235 781 193 688 235 729 b 142 874 235 832 193 874 b 49 781 90 874 49 832 b 142 688 49 729 90 688 z m 282 401 b 254 278 272 347 267 303 b 200 329 229 222 199 257 b 225 608 204 474 225 608 b 35 638 218 681 47 679 b 0 236 13 567 0 318 b 157 0 0 58 81 0 b 347 400 315 0 347 307 b 282 401 347 440 288 439 z "},"j":{"ha":233,"x_min":0,"x_max":0,"o":"m 124 688 b 217 781 175 688 217 729 b 124 874 217 832 175 874 b 31 781 72 874 31 832 b 124 688 31 729 72 688 z m 194 331 b 219 610 203 474 219 610 b 29 638 213 681 42 679 b -6 236 7 567 -6 319 b -122 -122 -6 58 0 -79 b -286 -96 -222 -156 -286 -96 b -43 -346 -326 -118 -278 -346 b 200 -119 92 -346 175 -250 b 194 331 222 7 182 93 z "},"k":{"ha":589,"x_min":0,"x_max":0,"o":"m 592 403 b 513 250 583 347 567 250 b 426 313 454 251 426 313 b 579 497 515 311 581 389 b 408 667 578 613 499 667 b 214 546 339 667 258 643 b 343 926 254 928 343 926 b 90 963 346 1036 157 1074 b 0 231 40 878 -4 469 b 156 0 3 107 40 0 b 261 61 207 0 253 40 b 231 142 246 71 236 101 b 468 0 300 28 394 0 b 658 400 626 0 658 308 b 592 403 658 440 599 439 z m 247 404 b 247 404 306 700 376 443 z "},"l":{"ha":279,"x_min":0,"x_max":0,"o":"m 282 403 b 254 278 272 347 267 303 b 204 336 229 222 203 263 b 346 926 215 908 346 926 b 78 931 347 1043 131 1082 b 0 236 53 856 0 549 b 157 0 0 58 81 0 b 347 400 315 0 347 307 b 282 403 347 440 288 439 z "},"m":{"ha":899,"x_min":0,"x_max":0,"o":"m 903 403 b 875 278 893 349 888 304 b 821 331 850 224 818 257 b 832 504 825 422 828 453 b 682 667 840 626 753 667 b 518 533 628 667 558 642 b 368 667 511 632 433 667 b 210 549 317 667 251 643 b 218 610 214 586 218 610 b 28 638 210 682 38 678 b -7 231 21 611 -7 447 b 151 0 -7 108 36 0 b 257 61 203 0 249 40 b 232 339 224 85 215 204 b 310 421 271 626 314 572 b 307 236 308 368 307 325 b 464 0 306 58 388 -1 b 571 61 514 0 565 38 b 547 339 538 86 529 204 b 624 421 585 626 629 572 b 621 236 622 369 621 325 b 778 0 621 58 701 0 b 968 400 936 0 968 308 b 903 403 968 440 908 439 z "},"n":{"ha":585,"x_min":0,"x_max":0,"o":"m 588 403 b 561 278 578 349 572 304 b 507 331 535 222 504 257 b 517 504 510 421 514 451 b 367 667 525 626 438 667 b 210 551 315 667 251 643 b 218 610 214 588 218 610 b 28 638 210 682 38 678 b -7 231 21 611 -7 447 b 151 0 -7 107 36 0 b 257 61 203 0 249 40 b 256 61 257 61 256 61 b 232 339 222 86 214 204 b 308 421 269 626 314 572 b 306 236 307 368 306 325 b 463 0 306 58 386 0 b 653 400 621 0 653 308 b 588 403 653 440 593 439 z "},"o":{"ha":457,"x_min":0,"x_max":0,"o":"m 457 401 b 418 349 457 386 457 354 b 421 390 419 364 421 378 b 228 667 425 483 410 667 b 63 536 151 667 79 625 b 29 514 46 532 33 524 b 1 235 8 443 -3 311 b 204 -1 10 57 106 -1 b 411 276 340 0 392 146 b 525 399 475 286 525 319 b 457 401 525 439 460 436 z m 256 276 b 203 303 235 232 208 249 b 260 286 219 296 239 290 b 256 276 258 283 257 279 z m 278 363 b 219 486 240 381 214 415 b 279 490 228 567 271 557 b 278 363 283 457 283 408 z "},"p":{"ha":590,"x_min":0,"x_max":0,"o":"m 371 667 b 210 543 289 667 239 615 b 218 610 214 585 218 610 b 28 638 210 682 39 678 b -7 231 21 613 -4 447 b 176 -346 -12 -146 47 -346 b 300 -197 228 -346 282 -308 b 207 -49 300 -197 236 -181 b 192 161 196 6 192 79 b 367 0 214 78 264 0 b 576 385 489 0 576 135 b 371 667 576 568 504 667 z m 301 318 b 249 333 278 222 246 232 b 275 497 250 381 258 446 b 314 508 290 542 306 569 b 301 318 319 457 314 367 z "},"q":{"ha":601,"x_min":0,"x_max":0,"o":"m 564 -49 b 560 469 539 68 547 274 b 575 610 565 554 575 610 b 385 638 565 682 394 678 b 375 586 382 631 379 613 b 231 667 347 632 300 667 b -14 271 104 667 -14 511 b 189 0 -14 147 25 0 b 350 122 267 0 318 51 b 533 -346 357 -185 417 -346 b 657 -197 585 -346 639 -308 b 564 -49 657 -197 592 -181 z m 331 451 b 289 274 326 386 310 307 b 239 315 260 226 239 258 b 263 476 239 360 246 429 b 331 451 297 576 338 564 z "},"r":{"ha":376,"x_min":0,"x_max":0,"o":"m 379 400 b 358 292 375 367 365 311 b 299 349 326 213 297 249 b 308 497 300 404 306 457 b 75 667 321 640 217 667 b 75 688 75 667 75 681 b -28 699 72 753 -14 756 b -35 624 -33 672 -36 651 b 11 544 -32 569 11 544 b 4 392 11 544 7 440 b 72 386 1 339 69 335 b 76 546 74 439 75 510 b 108 464 76 546 117 554 b 97 246 103 397 97 331 b 254 0 97 96 150 0 b 444 403 415 0 446 311 b 379 400 444 439 385 440 z "},"s":{"ha":461,"x_min":0,"x_max":0,"o":"m 304 493 b 332 544 301 519 306 544 b 329 456 369 546 371 476 b 446 503 329 456 436 406 b 276 668 453 578 394 667 b 93 524 190 668 100 617 b 167 333 86 438 139 428 b 133 250 176 300 171 250 b 133 363 74 250 81 388 b 67 442 133 363 142 442 b -14 260 -11 443 -17 344 b 239 0 -8 108 99 0 b 447 186 394 0 443 110 b 304 493 456 346 315 415 z "},"t":{"ha":271,"x_min":0,"x_max":0,"o":"m 328 744 b 361 778 346 744 361 758 b 328 811 361 796 346 811 l 263 811 b 342 926 300 921 342 926 b 75 931 344 1043 128 1082 b 47 811 68 910 57 867 l -29 811 b -62 778 -47 811 -62 796 b -29 744 -62 758 -47 744 l 36 744 b -3 236 15 610 -4 424 b 154 0 -3 58 78 0 b 344 400 313 0 344 307 b 278 403 344 440 285 439 b 251 278 269 347 264 303 b 200 336 226 222 199 263 b 243 744 204 528 222 657 l 328 744 z "},"u":{"ha":553,"x_min":0,"x_max":0,"o":"m 556 403 b 529 278 547 349 542 304 b 475 331 504 224 474 257 b 500 610 478 474 500 610 b 308 638 493 681 322 681 b 281 396 296 596 286 490 b 254 278 272 344 267 303 b 200 331 229 224 199 257 b 225 610 204 474 225 610 b 35 638 218 681 47 681 b 0 236 13 567 0 319 b 157 0 0 58 81 0 b 292 114 219 0 263 49 b 432 0 319 31 376 0 b 622 400 590 0 622 308 b 556 403 622 440 563 439 z "},"v":{"ha":494,"x_min":0,"x_max":0,"o":"m 458 629 b 290 628 433 679 324 681 b 274 303 290 628 321 467 b 201 331 254 238 213 221 b 226 610 189 460 226 610 b 36 638 219 681 49 681 b 1 251 14 567 -6 365 b 232 0 14 64 138 0 b 460 251 375 0 439 168 b 458 629 488 363 486 574 z "},"w":{"ha":772,"x_min":0,"x_max":0,"o":"m 736 629 b 568 628 711 679 600 681 b 550 303 568 628 599 467 b 479 331 532 238 490 221 b 503 610 467 460 503 610 b 313 638 497 681 326 681 b 279 390 299 592 285 489 b 254 278 272 342 265 301 b 200 331 229 224 199 257 b 225 610 204 474 225 610 b 35 638 218 681 47 681 b 0 236 13 567 0 319 b 157 0 0 58 81 0 b 303 142 229 0 275 64 b 510 0 346 39 436 0 b 738 251 653 0 717 168 b 736 629 765 363 764 574 z "},"x":{"ha":532,"x_min":0,"x_max":0,"o":"m 536 401 b 501 293 532 365 522 322 b 333 310 461 235 392 235 b 489 628 510 464 496 597 b 322 644 479 669 349 681 b 271 447 322 644 344 554 b 251 617 254 508 254 557 b 15 632 249 681 19 681 b 0 388 11 601 0 456 b 67 379 0 331 65 343 b 69 429 68 413 69 429 b 113 269 76 375 92 321 b 26 75 64 204 29 131 b 189 15 22 -1 190 -17 b 193 124 189 15 172 58 b 368 0 249 49 313 0 b 601 397 496 0 601 192 b 536 401 601 440 540 438 z "},"y":{"ha":504,"x_min":0,"x_max":0,"o":"m 465 329 b 490 608 474 472 490 608 b 300 638 483 681 313 679 b 271 396 288 596 278 490 b 246 278 263 344 257 303 b 192 331 221 222 190 257 b 215 610 194 474 215 610 b 25 638 208 681 38 679 b -10 236 4 567 -10 319 b 147 0 -10 58 71 0 b 263 74 197 0 235 29 b 149 -122 254 -24 229 -94 b -15 -96 49 -156 -15 -96 b 228 -346 -56 -119 -7 -346 b 471 -119 363 -346 446 -250 b 465 329 493 7 453 93 z "},"z":{"ha":464,"x_min":0,"x_max":0,"o":"m 532 397 b 467 400 531 442 472 438 b 303 251 447 263 367 250 b 363 315 303 251 326 274 b 453 485 407 364 450 415 b 292 667 458 667 292 667 b 74 646 243 611 72 618 b 11 642 74 674 13 675 b 0 390 8 581 3 440 b 68 386 -3 339 65 335 b 69 465 69 421 69 431 b 225 429 69 465 82 429 b 35 81 225 429 7 207 b 114 0 49 15 114 0 b 190 24 131 15 154 24 b 363 0 261 24 289 0 b 532 397 510 0 535 317 z "}}}
